HIERARCHY
ROOT Hips
{
	OFFSET -0.001795 -0.223333 0.028219
	CHANNELS 6 Xposition Yposition Zposition Zrotation Yrotation Xrotation 
	JOINT LeftUpLeg
	{
		OFFSET 0.069520 -0.091406 -0.006815
		CHANNELS 3 Zrotation Yrotation Xrotation
		JOINT LeftLeg
		{
			OFFSET 0.034277 -0.375199 -0.004496
			CHANNELS 3 Zrotation Yrotation Xrotation
			JOINT LeftFoot
			{
				OFFSET -0.013596 -0.397961 -0.043693
				CHANNELS 3 Zrotation Yrotation Xrotation
				JOINT LeftToe
				{
					OFFSET 0.026358 -0.055791 0.119288
					CHANNELS 3 Zrotation Yrotation Xrotation
					End Site
					{
						OFFSET 0.000000 0.000000 0.000000
					}
				}
			}
		}
	}
	JOINT RightUpLeg
	{
		OFFSET -0.067670 -0.090522 -0.004320
		CHANNELS 3 Zrotation Yrotation Xrotation
		JOINT RightLeg
		{
			OFFSET -0.038290 -0.382569 -0.008850
			CHANNELS 3 Zrotation Yrotation Xrotation
			JOINT RightFoot
			{
				OFFSET 0.015774 -0.398415 -0.042312
				CHANNELS 3 Zrotation Yrotation Xrotation
				JOINT RightToe
				{
					OFFSET -0.025372 -0.048144 0.123348
					CHANNELS 3 Zrotation Yrotation Xrotation
					End Site
					{
						OFFSET 0.000000 0.000000 0.000000
					}
				}
			}
		}
	}
	JOINT Spine
	{
		OFFSET -0.002533 0.108963 -0.026696
		CHANNELS 3 Zrotation Yrotation Xrotation
		JOINT Spine1
		{
			OFFSET 0.005487 0.135180 0.001092
			CHANNELS 3 Zrotation Yrotation Xrotation
			JOINT Spine2
			{
				OFFSET 0.001457 0.052922 0.025425
				CHANNELS 3 Zrotation Yrotation Xrotation
				JOINT Neck
				{
					OFFSET -0.002778 0.213870 -0.042857
					CHANNELS 3 Zrotation Yrotation Xrotation
					JOINT Head
					{
						OFFSET 0.005152 0.064970 0.051349
						CHANNELS 3 Zrotation Yrotation Xrotation
						End Site
						{
							OFFSET 0.000000 0.000000 0.000000
						}
					}
				}
				JOINT LeftShoulder
				{
					OFFSET 0.078845 0.121749 -0.034090
					CHANNELS 3 Zrotation Yrotation Xrotation
					JOINT LeftArm
					{
						OFFSET 0.090977 0.030469 -0.008868
						CHANNELS 3 Zrotation Yrotation Xrotation
						JOINT LeftForeArm
						{
							OFFSET 0.259612 -0.012772 -0.027456
							CHANNELS 3 Zrotation Yrotation Xrotation
							JOINT LeftHand
							{
								OFFSET 0.249234 0.008986 -0.001171
								CHANNELS 3 Zrotation Yrotation Xrotation
								End Site
								{
									OFFSET 0.000000 0.000000 0.000000
								}
							}
						}
					}
				}
				JOINT RightShoulder
				{
					OFFSET -0.081759 0.118833 -0.038615
					CHANNELS 3 Zrotation Yrotation Xrotation
					JOINT RightArm
					{
						OFFSET -0.096012 0.032551 -0.009143
						CHANNELS 3 Zrotation Yrotation Xrotation
						JOINT RightForeArm
						{
							OFFSET -0.253742 -0.013329 -0.021401
							CHANNELS 3 Zrotation Yrotation Xrotation
							JOINT RightHand
							{
								OFFSET -0.255298 0.007772 -0.005559
								CHANNELS 3 Zrotation Yrotation Xrotation
								End Site
								{
									OFFSET 0.000000 0.000000 0.000000
								}
							}
						}
					}
				}
			}
		}
	}
}
MOTION
Frames: 9
Frame Time: 0.050000
0.000000 0.949304 0.000000 -1.896806 -2.202162 3.807449 10.089327 -0.148708 0.373306 -2.658803 0.347115 -4.380460 5.122530 12.794138 13.023635 0.000000 0.000000 0.000000 -6.125651 0.317887 -1.950285 2.688491 -0.304831 -2.269903 -4.163479 -13.557842 15.292928 0.000000 0.000000 0.000000 -2.475271 0.075281 -0.990879 4.432723 -0.569825 -22.744964 -0.217316 0.273239 28.434737 -0.163558 1.461276 -25.386902 0.000000 0.000000 0.000000 -22.572851 0.898903 -1.460294 -55.809525 -8.106376 -5.495196 -11.683428 -26.664232 4.338744 0.000000 0.000000 0.000000 13.929633 5.638117 1.897774 63.509489 5.242469 -6.112727 6.319829 28.029800 2.813904 0.000000 0.000000 0.000000 
-0.000035 0.948215 0.000324 -1.978878 -2.841317 4.179077 10.434340 -0.143444 0.820436 -2.769813 0.370774 -5.398370 5.732046 13.681581 12.989871 0.000000 0.000000 0.000000 -6.130942 0.360080 -2.551023 2.766412 -0.302654 -2.014810 -3.621375 -12.729631 15.364360 0.000000 0.000000 0.000000 -2.566464 0.103344 -2.036611 4.241441 -0.575507 -22.064439 -0.055993 0.876718 28.292516 -0.519092 1.712738 -25.371523 0.000000 0.000000 0.000000 -22.780046 1.397367 -1.850356 -55.770981 -8.832372 -5.125513 -12.447543 -26.401548 4.460154 0.000000 0.000000 0.000000 13.693220 5.652660 1.938614 64.654767 4.660460 -6.485095 5.962016 29.248670 2.897249 0.000000 0.000000 0.000000 
-0.000007 0.947781 0.000438 -1.706408 -2.817373 3.944507 10.342707 -0.137704 0.299433 -3.040180 0.374422 -3.696460 5.676040 13.469164 11.799304 0.000000 0.000000 0.000000 -6.390138 0.363100 -2.595197 2.400612 -0.268809 -1.745043 -3.603292 -12.748921 15.656004 0.000000 0.000000 0.000000 -2.740975 0.104079 -2.138469 4.356394 -0.587563 -22.322515 -0.296852 0.841830 28.888697 0.128697 1.288374 -24.774928 0.000000 0.000000 0.000000 -23.237554 1.245056 -1.753460 -55.012640 -9.050163 -5.083012 -12.480499 -26.132172 4.424744 0.000000 0.000000 0.000000 14.720345 6.261289 2.230475 63.608869 4.469245 -6.571937 5.289726 28.995335 2.688149 0.000000 0.000000 0.000000 
-0.000004 0.946946 0.000474 -1.747393 -3.219448 4.293162 10.724177 -0.138577 0.160117 -3.620323 0.425918 -3.836070 6.065873 14.084476 12.091406 0.000000 0.000000 0.000000 -6.503498 0.407482 -3.310531 2.536194 -0.269298 -1.285320 -3.893389 -13.316847 15.807162 0.000000 0.000000 0.000000 -2.971363 0.124316 -2.904936 4.407519 -0.615106 -22.187245 -0.331482 0.367019 28.785752 -0.267106 1.354141 -23.676334 0.000000 0.000000 0.000000 -23.519448 1.911542 -1.971073 -54.920925 -8.932934 -5.135889 -12.746353 -26.230579 4.544916 0.000000 0.000000 0.000000 14.342034 6.810424 2.350268 63.950100 3.957050 -6.885834 5.527823 29.545177 2.763256 0.000000 0.000000 0.000000 
-0.000032 0.946996 0.000511 -1.641114 -2.965084 3.951005 10.864213 -0.139711 0.144931 -3.935294 0.450108 -3.413083 5.702307 13.523380 12.019691 0.000000 0.000000 0.000000 -6.682731 0.382725 -2.876690 2.326040 -0.254741 -1.371141 -3.876318 -13.283391 15.984943 0.000000 0.000000 0.000000 -3.084660 0.115750 -2.687920 4.624853 -0.707516 -21.618509 -0.602547 0.412559 28.362880 -0.203370 1.346218 -23.492867 0.000000 0.000000 0.000000 -23.276402 1.792098 -1.968832 -54.989554 -8.908873 -5.083850 -13.654419 -26.517359 4.798197 0.000000 0.000000 0.000000 14.690425 6.418187 2.184032 63.721787 3.680564 -6.959618 6.437372 29.699040 3.011925 0.000000 0.000000 0.000000 
-0.000011 0.947202 0.000536 -1.682804 -2.809504 3.886306 11.180225 -0.147462 0.273178 -4.368881 0.485210 -3.651743 5.711978 13.588554 12.352567 0.000000 0.000000 0.000000 -6.635373 0.372004 -2.717189 2.126934 -0.240017 -1.439588 -3.764428 -13.133615 16.338173 0.000000 0.000000 0.000000 -3.437554 0.116344 -2.806658 4.798409 -0.735999 -21.809660 -0.497912 -0.017970 28.825820 -0.259479 1.316181 -23.430673 0.000000 0.000000 0.000000 -23.370732 2.166331 -2.087649 -54.896443 -9.020618 -5.094190 -14.271490 -26.396024 4.951696 0.000000 0.000000 0.000000 14.174345 6.451767 2.152961 63.835277 3.524668 -7.125418 6.896364 29.719850 3.115726 0.000000 0.000000 0.000000 
-0.000019 0.947168 0.000513 -1.717080 -2.713136 3.697459 11.298836 -0.147560 0.316967 -4.672464 0.510271 -3.601239 5.747642 13.687944 12.660098 0.000000 0.000000 0.000000 -6.605298 0.362067 -2.597664 2.146505 -0.237679 -1.216471 -3.659860 -12.928823 16.233062 0.000000 0.000000 0.000000 -3.408574 0.110916 -2.606650 4.692314 -0.723637 -21.593873 -0.537297 -0.131388 28.848559 -0.086786 1.193009 -23.312485 0.000000 0.000000 0.000000 -23.245393 2.247907 -2.110531 -54.863279 -8.603139 -5.286119 -15.021117 -26.927370 5.254984 0.000000 0.000000 0.000000 14.176991 6.449027 2.142279 63.885443 3.238150 -7.296496 7.382601 30.135872 3.291262 0.000000 0.000000 0.000000 
-0.000014 0.947195 0.000462 -1.810761 -2.759133 3.434475 11.327711 -0.140094 0.397203 -4.684886 0.513069 -3.457566 5.550914 13.357905 12.480314 0.000000 0.000000 0.000000 -6.336947 0.345492 -2.406910 2.072934 -0.227646 -1.048016 -3.609314 -12.775561 15.789302 0.000000 0.000000 0.000000 -3.376024 0.105652 -2.437733 4.623817 -0.721506 -21.409593 -0.439704 0.097904 29.044618 0.036974 1.127949 -22.889137 0.000000 0.000000 0.000000 -23.037193 1.962281 -1.973347 -54.617305 -8.264229 -5.435202 -15.823573 -27.657958 5.606793 0.000000 0.000000 0.000000 14.047991 6.449516 2.190567 64.179846 3.097661 -7.419852 7.653341 30.570018 3.442104 0.000000 0.000000 0.000000 
-0.000015 0.947249 0.000375 -1.911005 -2.766605 3.275313 11.357973 -0.136828 0.512542 -4.631720 0.508433 -3.511846 5.414885 13.142117 12.458769 0.000000 0.000000 0.000000 -6.159976 0.329832 -2.187724 1.968500 -0.219667 -1.101220 -3.517581 -12.602144 15.676037 0.000000 0.000000 0.000000 -3.373303 0.102237 -2.333683 4.583533 -0.725351 -21.208235 -0.342445 0.228688 29.070804 0.023226 1.145332 -22.656362 0.000000 0.000000 0.000000 -22.664346 1.943806 -1.966723 -54.761517 -8.019187 -5.548701 -16.324285 -27.963556 5.802388 0.000000 0.000000 0.000000 13.934805 6.519124 2.249551 64.095003 2.762459 -7.590525 8.093813 30.920944 3.609406 0.000000 0.000000 0.000000 
